<?xml version="1.0" standalone="no"?>
<!DOCTYPE svg PUBLIC "-//W3C//DTD SVG 20010904//EN"
 "http://www.w3.org/TR/2001/REC-SVG-20010904/DTD/svg10.dtd">
<svg version="1.0" xmlns="http://www.w3.org/2000/svg"
 width="7678.000000pt" height="7678.000000pt" viewBox="0 0 7678.000000 7678.000000"
 preserveAspectRatio="xMidYMid meet">

<g transform="translate(0.000000,7678.000000) scale(0.100000,-0.100000)"
fill="#000000" stroke="none">
<path d="M16905 65951 c-293 -72 -566 -348 -734 -744 -198 -465 -285 -1060
-267 -1832 15 -627 43 -864 202 -1683 170 -878 212 -1216 201 -1622 -10 -402
-88 -654 -284 -917 -86 -115 -181 -211 -438 -443 -329 -297 -461 -440 -604
-653 -102 -152 -149 -241 -319 -592 -469 -974 -810 -1755 -1652 -3795 -457
-1106 -666 -1603 -910 -2160 -805 -1838 -1513 -3176 -2299 -4345 -107 -159
-245 -365 -306 -456 -597 -887 -911 -1618 -991 -2305 -22 -193 -15 -550 15
-717 89 -498 303 -913 659 -1279 219 -225 422 -375 697 -514 347 -175 675
-256 1045 -258 l175 -1 265 132 c534 266 662 346 2143 1341 553 372 894 576
1307 781 507 251 973 418 1485 531 104 23 234 52 289 65 265 62 553 95 839 95
l203 0 175 45 c263 66 424 88 664 88 229 1 361 -15 569 -67 177 -45 300 -92
492 -186 494 -244 944 -645 1503 -1340 86 -107 164 -205 172 -218 l16 -22
22044 2 22044 3 32 285 c18 157 46 416 62 575 23 219 36 311 56 375 94 311
259 959 344 1355 564 2622 402 4827 -490 6650 -899 1839 -2705 3435 -5019
4437 -2429 1051 -5117 1334 -7340 773 -928 -235 -1670 -570 -2500 -1129 -430
-290 -758 -540 -1580 -1208 -1122 -909 -1609 -1260 -2240 -1613 -198 -111
-661 -340 -900 -445 -1480 -653 -3225 -1062 -5060 -1184 -431 -29 -718 -38
-1210 -38 -1597 0 -2772 159 -4183 568 -1641 474 -3144 1127 -4582 1989 -1039
623 -1760 1152 -3480 2555 -1472 1201 -2132 1700 -3045 2307 -505 334 -524
345 -727 415 -98 34 -182 65 -186 69 -5 4 16 83 46 175 329 1000 567 2463 672
4119 41 664 41 948 -1 1195 -69 403 -256 666 -534 754 -356 113 -781 -78
-1133 -509 -325 -397 -563 -901 -793 -1680 -121 -408 -158 -578 -273 -1246
-140 -811 -233 -1167 -386 -1485 -80 -169 -140 -261 -229 -352 -148 -154 -278
-214 -663 -311 -592 -149 -831 -147 -976 8 -112 119 -146 245 -237 866 -239
1636 -437 2649 -706 3610 -145 520 -267 770 -478 981 -87 87 -114 107 -196
148 -153 75 -312 95 -465 57z m31200 -15986 c262 -517 477 -940 478 -941 1 -1
461 -63 1022 -138 561 -75 1035 -140 1054 -144 l33 -7 -754 -751 -754 -751
188 -1029 c103 -566 188 -1035 188 -1041 0 -7 -4 -13 -8 -13 -5 0 -430 216
-946 480 l-937 480 -932 -503 c-561 -303 -933 -499 -935 -491 -2 6 72 479 164
1050 l166 1039 -45 40 c-93 83 -1487 1418 -1487 1424 0 3 471 80 1048 170 576
90 1047 164 1048 165 0 0 207 432 460 958 252 527 462 954 465 950 4 -4 222
-430 484 -947z m-18806 -83 c261 -515 477 -940 481 -945 5 -6 2057 -287 2100
-287 8 0 -325 -341 -741 -757 l-756 -758 188 -1025 c104 -564 188 -1033 186
-1042 -1 -13 -211 91 -945 466 l-943 483 -932 -503 c-594 -320 -933 -498 -935
-490 -2 8 72 479 163 1048 l166 1035 -71 69 c-39 38 -383 366 -763 729 -380
363 -691 664 -690 670 1 5 471 83 1044 172 573 90 1043 164 1044 165 2 3 797
1658 867 1806 27 56 52 102 56 102 4 0 220 -422 481 -938z m9576 -4 c263 -519
478 -944 480 -945 1 -2 474 -66 1051 -144 577 -77 1050 -142 1052 -144 2 -1
-336 -340 -749 -752 l-753 -750 191 -1044 c105 -574 190 -1045 188 -1047 -2
-2 -1278 648 -1741 888 l-150 78 -935 -504 c-514 -277 -935 -500 -937 -496 -1
4 72 471 163 1037 91 567 164 1038 163 1047 -2 9 -347 344 -766 744 -621 592
-760 730 -745 736 10 4 455 75 988 158 534 83 998 155 1031 161 l62 11 458
954 c252 525 461 954 465 954 4 0 221 -424 484 -942z m18405 -74 c261 -514
477 -939 480 -944 3 -5 460 -70 1015 -145 556 -74 1030 -138 1054 -141 l43 -7
-751 -751 c-413 -413 -751 -758 -751 -767 0 -8 83 -472 185 -1030 102 -558
184 -1021 183 -1030 -2 -12 -169 69 -713 348 -390 200 -815 417 -942 482
l-233 119 -932 -504 c-513 -276 -934 -499 -936 -495 -2 5 72 476 164 1047 98
613 163 1043 158 1050 -5 7 -350 337 -767 735 -417 397 -754 725 -750 729 4 4
476 79 1047 169 572 89 1041 162 1042 164 1 1 208 431 459 955 252 523 461
952 464 952 4 0 220 -421 481 -936z"/>
<path d="M22300 41554 c0 -4 125 -131 278 -283 1054 -1051 1955 -2095 2597
-3010 575 -821 916 -1451 1108 -2048 49 -151 69 -196 157 -355 56 -100 142
-247 192 -327 l90 -146 88 -285 c830 -2681 1341 -5214 1520 -7525 99 -1292
105 -2589 15 -3815 -200 -2723 -865 -5299 -1920 -7435 -276 -560 -441 -813
-1121 -1720 -413 -551 -609 -838 -786 -1150 -429 -755 -564 -1364 -397 -1785
112 -282 405 -534 807 -696 265 -107 543 -156 882 -155 330 0 630 53 975 171
540 186 1223 589 1556 920 237 235 379 484 464 813 62 243 87 465 105 927 29
761 75 1038 228 1377 l51 113 26 457 c116 2091 178 2486 680 4383 74 278 238
915 365 1415 527 2073 804 3113 1054 3955 28 93 53 201 61 270 105 806 366
1585 885 2635 186 376 309 608 712 1344 177 322 379 693 449 824 88 165 129
233 133 220 26 -88 177 -1090 236 -1568 151 -1230 208 -2230 197 -3475 -6
-742 -19 -1044 -68 -1680 -203 -2621 -827 -5054 -1849 -7200 -286 -600 -451
-859 -1130 -1770 -566 -759 -753 -1041 -955 -1435 -353 -692 -439 -1238 -255
-1624 56 -116 112 -192 219 -293 257 -245 648 -421 1071 -483 152 -23 430 -30
589 -16 568 51 1131 263 1771 668 605 384 875 714 1010 1237 57 218 83 440
100 836 16 398 29 614 45 750 33 278 99 527 191 718 l46 97 29 510 c114 2034
180 2460 670 4310 72 270 236 906 365 1415 515 2028 700 2726 971 3665 122
423 138 488 159 645 60 432 174 882 340 1341 234 649 545 1296 1172 2439 107
195 245 447 307 560 821 1498 1207 2407 1410 3318 80 360 155 933 155 1183 l0
59 159 0 c87 0 239 -5 337 -10 1328 -77 2573 -507 3724 -1288 310 -210 441
-326 540 -478 27 -42 171 -319 319 -617 148 -298 385 -758 526 -1022 671
-1254 831 -1569 1067 -2100 952 -2142 1278 -4658 927 -7140 -390 -2762 -1597
-5318 -3410 -7222 -90 -95 -253 -266 -362 -379 -368 -384 -564 -636 -710 -914
-154 -292 -226 -591 -214 -895 14 -347 122 -622 326 -826 164 -163 382 -270
726 -355 225 -55 381 -75 642 -81 246 -6 393 3 607 38 1322 215 2658 1296
3426 2773 284 546 543 1312 729 2151 128 580 203 1025 381 2261 242 1679 386
2376 625 3029 173 473 342 840 789 1715 485 950 658 1332 825 1824 160 471
222 819 222 1256 0 545 -70 892 -391 1925 -347 1115 -428 1520 -491 2435 -10
133 -30 2174 -22 2189 3 5 254 -198 438 -354 393 -333 890 -808 1233 -1180
990 -1074 1743 -2217 2172 -3295 232 -582 365 -1116 432 -1735 17 -160 17
-814 0 -990 -51 -512 -133 -968 -297 -1639 -84 -348 -1589 -6164 -1662 -6426
-212 -764 -416 -1276 -684 -1719 -192 -317 -385 -553 -864 -1056 -334 -352
-491 -529 -635 -720 -285 -375 -465 -749 -522 -1079 -29 -172 -22 -418 16
-555 83 -298 280 -545 576 -723 243 -146 536 -238 890 -278 143 -17 482 -14
645 5 338 39 712 140 1195 323 1168 443 2255 1088 2870 1702 496 496 670 910
670 1595 0 305 -16 456 -111 1079 -105 680 -124 901 -124 1416 0 379 9 542 46
875 132 1189 517 2447 1227 4000 225 493 342 733 1007 2060 795 1588 984 1981
1265 2635 211 490 348 847 405 1050 52 188 60 246 60 440 0 219 -15 292 -95
457 -80 165 -173 277 -485 588 -155 154 -312 318 -349 365 -242 304 -415 660
-505 1040 -138 578 -94 1268 130 2055 225 795 604 1631 1288 2848 266 474 534
973 819 1526 l100 194 6 -64 c3 -35 10 -158 16 -274 46 -902 147 -2019 276
-3050 534 -4285 1705 -8528 3430 -12424 133 -302 149 -332 161 -315 43 58 353
674 481 954 368 807 678 1684 880 2485 125 494 195 900 233 1350 15 180 15
654 0 815 -75 797 -303 1376 -809 2060 -123 166 -244 317 -517 645 -427 514
-558 682 -755 975 -794 1183 -1270 2613 -1445 4345 -60 595 -79 1084 -72 1810
6 560 12 705 47 1245 51 763 129 1472 315 2868 36 266 65 489 65 497 0 13
-2696 15 -21405 15 -11773 0 -21405 -3 -21405 -6z"/>
</g>
</svg>
