<svg xmlns="http://www.w3.org/2000/svg" viewBox="0 0 154 222"><path fill="#f45434" stroke="#f45434" d="M0 30v30h34v102H0v60.012l77.25-.256 77.25-.256.266-30 .265-30-17.515.295-17.516.294V60.047l17.25-.273 17.25-.274.265-29.75L155.03 0H0v30m.443.5c0 16.5.137 23.39.305 15.312.167-8.079.168-21.579 0-30C.581 7.39.444 14 .443 30.5M.444 192c0 16.775.137 23.637.304 15.25.167-8.387.167-22.113 0-30.5S.444 175.225.444 192" fill-rule="evenodd"/><path fill="#fcfcfc" stroke="#fcfcfc" d="M0 30v30h34v102H0v60.012l77.25-.256 77.25-.256.266-30 .265-30-17.515.295-17.516.294V60.047l17.25-.273 17.25-.274.265-29.75L155.03 0H0v30m.443.5c0 16.5.137 23.39.305 15.312.167-8.079.168-21.579 0-30C.581 7.39.444 14 .443 30.5M8.674 8.66C8.303 9.03 8 18.708 8 30.167V51h12.851c15.236 0 18.82.967 20.757 5.603 2.051 4.909 2.051 103.885 0 108.794-1.938 4.637-5.52 5.603-20.777 5.603H7.96l.27 21.25.27 21.25h137l.27-21.25.27-21.25h-12.871c-15.257 0-18.839-.966-20.777-5.603-1.832-4.386-2.067-103.164-.257-108.355 1.726-4.95 5.494-6.042 20.853-6.042h13.052l-.27-21.25-.27-21.25-68.076-.257c-37.442-.141-68.38.046-68.75.417M.444 192c0 16.775.137 23.637.304 15.25.167-8.387.167-22.113 0-30.5S.444 175.225.444 192" fill-rule="evenodd"/><path fill="#142c4c" stroke="#142c4c" d="M0 29.476v29.477l17.25.273 17.25.274v103l-17.25.274-17.25.273v58.965l77.25-.256 77.25-.256.265-29.5.265-29.5H119.5v-103L137 59l17.5-.5.265-29.25L155.03 0H0v29.476M.442 30c0 16.225.138 22.862.306 14.75.168-8.113.168-21.388 0-29.5C.58 7.137.442 13.775.442 30M8 30v22h14.826c14.204 0 14.917.097 17 2.314L42 56.629v109.022l-2.314 2.175c-2.16 2.028-3.299 2.174-17 2.174H8v44h138v-44h-14.826c-14.204 0-14.917-.097-17-2.314L112 165.371V56.349l2.314-2.175c2.16-2.028 3.299-2.174 17-2.174H146V8H8v22M.443 192.5c0 16.5.137 23.39.305 15.312.167-8.079.168-21.579 0-30C.581 169.39.444 176 .443 192.5" fill-rule="evenodd"/></svg>