<svg xmlns="http://www.w3.org/2000/svg" viewBox="0 0 36 36" id="kotlin">
    <path fill="#EFEFEF" d="M8.114 5.564C6.309 12.241 1.61 15.891.74 19.109s-.847 10.475 13.955 14.477 19.432-4.501 20.388-8.041C39.564 8.973 11.311-6.262 8.114 5.564z"></path><path fill="#A4AFC1" d="m6.828 4.16 1.415-1.415.707.707-1.415 1.415zM2.762 8.225 4.177 6.81l.707.707-1.415 1.415zM2.762 3.275l.707-.707 1.415 1.415-.707.707zM26.45 23.262c-.827 0-1.5-.673-1.5-1.5s.673-1.5 1.5-1.5 1.5.673 1.5 1.5-.673 1.5-1.5 1.5zm0-2c-.275 0-.5.225-.5.5s.225.5.5.5.5-.225.5-.5-.224-.5-.5-.5z">
    </path>
    <path fill="#F3F3F1" d="M19.3 6.75 6.821 20.456v7.957L28.25 6.75zM6.75 6.847v9.82l9.11-9.82z">
    </path>
    <path fill="#2FDF84" d="M18.875 20 9.87 29.25h18.142z">
    </path>
    <path fill="#D5DBE1" d="M9.071 20.457 21.55 6.75H19.3L6.821 20.457v7.956l2.25-2.275zM9 6.847H6.75v9.82L9 14.242z">
    </path><path fill="#00B871" d="M18.875 20 9.87 29.25h2.25l7.888-8.103z">
    </path>
    <path d="M6.821 29.163a.75.75 0 0 1-.75-.75v-7.957c0-.187.069-.367.195-.505L18.745 6.245A.753.753 0 0 1 19.3 6h8.95a.75.75 0 0 1 .533 1.277L7.354 28.94a.745.745 0 0 1-.533.223zm.75-8.417v5.843L26.453 7.5h-6.822L7.571 20.746zM6.75 17.417a.748.748 0 0 1-.75-.75v-9.82a.75.75 0 0 1 .75-.75h9.11a.749.749 0 0 1 .55 1.26l-9.11 9.82a.752.752 0 0 1-.55.24zm.75-9.82v7.159l6.642-7.159H7.5zM28.013 30H9.87a.751.751 0 0 1-.537-1.273l9.005-9.25a.749.749 0 0 1 .534-.227h.003c.2 0 .393.08.533.223l9.138 9.25A.75.75 0 0 1 28.013 30zm-16.367-1.5h14.571l-7.339-7.429-7.232 7.429z">
    </path>
</svg>